# AST/ASF file generated using VICON BodyLanguage
# -----------------------------------------------
:version 1.10
:name VICON
:units
  mass 1.0
  length 0.45
  angle deg
:documentation
   .ast/.asf automatically generated from VICON data using
   VICON BodyBuilder and BodyLanguage model FoxedUp or BRILLIANT.MOD
:root
   order TX TY TZ RX RY RZ
   axis XYZ
   position 0 0 0  
   orientation 0 0 0 
:bonedata
  begin
     id 1 
     name lhipjoint
     direction 0.714689 -0.624256 0.315473 
     length 2.45343 
     axis 0 0 0  XYZ
  end
  begin
     id 2 
     name lfemur
     direction 0.34202 -0.939693 0  
     length 6.59069  
     axis 0 0 20  XYZ
    dof rx ry rz
    limits (-160.0 20.0)
           (-70.0 70.0)
           (-60.0 70.0)
  end
  begin
     id 3 
     name ltibia
     direction 0.34202 -0.939693 0   
     length 6.73476   
     axis 0 0 20   XYZ
    dof rx
    limits (-10.0 170.0)
  end
  begin
     id 4 
     name lfoot
     direction 0.0718085 -0.197292 0.977711   
     length 1.52607   
     axis -90 7.62852e-016 20   XYZ
    dof rx rz
    limits (-45.0 90.0)
           (-70.0 20.0)
  end
  begin
     id 5 
     name ltoes
     direction 1.53553e-011 -4.22024e-011 1   
     length 0.777832   
     axis -90 7.62852e-016 20   XYZ
    dof rx
    limits (-90.0 20.0)
  end
  begin
     id 6 
     name rhipjoint
     direction -0.727419 -0.612432 0.309497   
     length 2.50079  
     axis 0 0 0  XYZ 
  end
  begin
     id 7 
     name rfemur
     direction -0.34202 -0.939693 0   
     length 6.51665   
     axis 0 0 -20   XYZ
    dof rx ry rz
    limits (-160.0 20.0)
           (-70.0 70.0)
           (-70.0 60.0)
  end
  begin
     id 8 
     name rtibia
     direction -0.34202 -0.939693 0   
     length 6.48919   
     axis 0 0 -20   XYZ
    dof rx
    limits (-10.0 170.0)
 end
 begin
     id 9 
     name rfoot
     direction -0.112205 -0.308282 0.944655   
     length 1.68717  
     axis -90 -7.62852e-016 -20   XYZ
    dof rx rz
    limits (-45.0 90.0)
           (-20.0 70.0)
  end
  begin
     id 10 
     name rtoes
     direction -1.53583e-011 -4.21993e-011 1   
     length 0.846859   
     axis -90 -7.62852e-016 -20   XYZ
    dof rx
    limits (-90.0 20.0)
  end
  begin
     id 11 
     name lowerback
     direction -0.00119603 0.996364 -0.0851956   
     length 1.67242   
     axis 0 0 0   XYZ
    dof rx ry rz
    limits (-20.0 45.0)
           (-30.0 30.0)
           (-30.0 30.0)
  end
  begin
     id 12 
     name upperback
     direction -0.00531001 0.998318 0.0577248   
     length 1.64819   
     axis 0 0 0   XYZ
    dof rx ry rz
    limits (-20.0 45.0)
           (-30.0 30.0)
           (-30.0 30.0)
  end
  begin
     id 13 
     name thorax
     direction -0.00653676 0.995132 0.0983291   
     length 1.67429   
     axis 0 0 0   XYZ
    dof rx ry rz
    limits (-20.0 45.0)
           (-30.0 30.0)
           (-30.0 30.0)
  end
  begin
     id 14 
     name lowerneck
     direction 0.0141424 0.999886 0.00525412   
     length 1.59623   
     axis 0 0 0   XYZ
    dof rx ry rz
    limits (-20.0 45.0)
           (-30.0 30.0)
           (-30.0 30.0)
  end
  begin
     id 15 
     name upperneck
     direction -0.0640064 0.987178 -0.146232   
     length 1.59576   
     axis 0 0 0   XYZ
    dof rx ry rz
    limits (-20.0 45.0)
           (-30.0 30.0)
           (-30.0 30.0)
  end
  begin
     id 16
     name head
     direction -0.0222942 0.998496 -0.0500859  
     length 1.60959  
     axis 0 0 0   XYZ
    dof rx ry rz
    limits (-20.0 45.0)
           (-30.0 30.0)
           (-30.0 30.0)
  end
  begin
     id 17 
     name lclavicle
     direction 0.908549 0.392612 0.142806  
     length 2.80649  
     axis 0 0 0   XYZ
    dof ry rz
    limits (-20.0 10.0)
           (0.0 20.0)
  end
  begin
     id 18 
     name lhumerus
     direction 1 -4.48968e-011 1.08832e-028   
     length 4.2884   
     axis -180 -30 -90   XYZ
    dof rx ry rz
    limits (-60.0 90.0)
           (-90.0 90.0)
           (-90.0 90.0)
  end
  begin
     id 19
     name lradius
     direction 1 -4.48952e-011 -3.02642e-028   
     length 3.06552   
     axis -180 -30 -90   XYZ
    dof rx
    limits (-10.0 170.0)
  end
  begin
     id 20
     name lwrist
     direction 1 -4.49014e-011 1.58672e-027   
     length 1.53276   
     axis -1.65735e-015 90 90   XYZ
    dof ry
    limits (-180.0 0.0)
 end
  begin
     id 21 
     name lhand
     direction 1 -4.48928e-011 3.17344e-027   
     length 0.753045   
     axis -2.02492e-015 90 90   XYZ
    dof rx rz
    limits (-90.0 90.0)
           (-45.0 45.0)
  end
  begin
     id 22 
     name lfingers
     direction 1 -4.48958e-011 6.34687e-027   
     length 0.607124   
     axis -4.04985e-015 90 90   XYZ
    dof rx
    limits (0.0 90.0)
  end
  begin
     id 23
     name lthumb
     direction 0.707107 -6.34905e-011 0.707107   
     length 0.871712   
     axis -90 45 2.85299e-015   XYZ
    dof rx rz
    limits (-45.0 45.0)
           (-45.0 45.0)
  end
  begin
     id 24 
     name rclavicle
     direction -0.885098 0.45949 0.0739604   
     length 2.9478  
     axis 0 0 0   XYZ 
    dof ry rz
    limits (-10.0 20.0)
           (-20.0 0.0)
  end
  begin
     id 25 
     name rhumerus
     direction -1 -4.4898e-011 -2.61739e-027  
     length 4.52172   
     axis -180 30 90   XYZ
    dof rx ry rz
    limits (-90.0 60.0)
           (-90.0 90.0)
           (-90.0 90.0)
  end
  begin
     id 26 
     name rradius
     direction -1 -4.48945e-011 9.02552e-028   
     length 2.8914   
     axis -180 30 90   XYZ
    dof rx
    limits (-10.0 170.0)
  end
  begin
     id 27 
     name rwrist
     direction -1 -4.49018e-011 1.58672e-027   
     length 1.4457   
     axis -1.65735e-015 -90 -90   XYZ
    dof ry
    limits (-180.0 0.0)
  end
  begin
     id 28
     name rhand
     direction -1 -4.48825e-011 3.17344e-027   
     length 0.680541   
     axis -2.02492e-015 -90 -90   XYZ
    dof rx rz
    limits (-90.0 90.0)
           (-45.0 45.0)
  end
  begin
     id 29
     name rfingers
     direction -1 -4.49067e-011 6.34687e-027   
     length 0.54867   
     axis -4.04985e-015 -90 -90   XYZ
    dof rx
    limits (0.0 90.0)
  end
  begin
     id 30
     name rthumb
     direction -0.707107 -6.34833e-011 0.707107   
     length 0.787783   
     axis -90 -45 -2.85299e-015   XYZ
    dof rx rz
    limits (-45.0 45.0)
           (-45.0 45.0)
  end
:hierarchy
  begin
    root lhipjoint rhipjoint lowerback
    lhipjoint lfemur
    lfemur ltibia
    ltibia lfoot
    lfoot ltoes
    rhipjoint rfemur
    rfemur rtibia
    rtibia rfoot
    rfoot rtoes
    lowerback upperback
    upperback thorax
    thorax lowerneck lclavicle rclavicle
    lowerneck upperneck
    upperneck head
    lclavicle lhumerus
    lhumerus lradius
    lradius lwrist
    lwrist lhand lthumb
    lhand lfingers
    rclavicle rhumerus
    rhumerus rradius
    rradius rwrist
    rwrist rhand rthumb
    rhand rfingers
  end

#!OML:ASF E:\emotionWalksFemale\Project 1\Capture day 1\Session 1\Female1.ASF
:FULLY-SPECIFIED
:DEGREES
110
root 8.93203 15.5146 22.9133 178.375 6.31058 -179.424
lowerback 7.95038 0.748146 1.82341
upperback -4.3689 1.33388 0.431555
thorax -9.07515 0.583922 -0.78039
lowerneck -6.98821 -1.30098 -5.18405
upperneck 12.0979 -1.51144 4.72238
head 4.85011 -0.586299 2.22808
rclavicle -6.16232e-015 5.36719e-015
rhumerus -40.9877 4.51911 -87.3734
rradius 32.7218
rwrist 22.5614
rhand -2.74254 -53.2152
rfingers 7.12502
rthumb 22.961 -81.8678
lclavicle -6.16232e-015 5.36719e-015
lhumerus -43.2369 -8.77939 94.2143
lradius 35.2494
lwrist -12.3479
lhand 0.915214 -37.9253
lfingers 7.12502
lthumb 26.4667 -9.75349
rfemur -0.249845 16.3614 26.1541
rtibia 16.5859
rfoot -12.6831 -26.5555
rtoes -7.76689
lfemur -3.92098 -17.9982 -23.9952
ltibia 22.1071
lfoot -20.1145 20.3929
ltoes -32.8544
111
root 8.93506 15.5138 22.9168 178.355 6.16824 -179.444
lowerback 8.04498 0.71362 1.77241
upperback -4.38314 1.28354 0.4305
thorax -9.1487 0.561449 -0.74685
lowerneck -7.08483 -1.3127 -5.23632
upperneck 12.2362 -1.52043 4.75913
head 4.91013 -0.587801 2.2484
rclavicle 2.80783e-015 6.75868e-015
rhumerus -41.0473 4.48234 -87.2972
rradius 32.7674
rwrist 22.5171
rhand -2.81274 -53.0163
rfingers 7.12502
rthumb 22.8937 -81.6773
lclavicle 2.80783e-015 6.75868e-015
lhumerus -43.1783 -8.68592 94.144
lradius 35.2266
lwrist -12.6596
lhand 1.10356 -37.9461
lfingers 7.12502
lthumb 26.647 -9.80152
rfemur -0.214605 16.3789 26.1621
rtibia 16.6025
rfoot -12.952 -26.6462
rtoes -7.17016
lfemur -3.91999 -17.9993 -23.993
ltibia 22.0826
lfoot -19.9671 20.3551
ltoes -33.2142
112
root 8.93212 15.5081 22.9047 178.126 6.07127 -179.46
lowerback 7.99998 0.691026 1.88904
upperback -4.25244 1.25247 0.376921
thorax -8.97674 0.53723 -0.861933
lowerneck -7.09397 -1.33343 -5.18943
upperneck 12.2604 -1.55228 4.75328
head 4.92038 -0.600907 2.23698
rclavicle -1.17283e-014 7.95139e-016
rhumerus -41.0602 4.41859 -87.2697
rradius 32.8373
rwrist 22.3891
rhand -2.48448 -52.9117
rfingers 7.12502
rthumb 23.2086 -81.5334
lclavicle -1.17283e-014 7.95139e-016
lhumerus -43.0916 -8.7188 94.0471
lradius 35.228
lwrist -12.7849
lhand 1.40676 -37.8277
lfingers 7.12502
lthumb 26.9371 -9.72761
rfemur 0.0600678 16.3255 26.2229
rtibia 16.6809
rfoot -13.1118 -26.7653
rtoes -6.94633
lfemur -3.59388 -18.2192 -24.1522
ltibia 22.0479
lfoot -19.9089 20.6359
ltoes -33.3282
113
root 8.93363 15.5113 22.9026 178.343 6.56964 -179.512
lowerback 7.78363 0.870884 1.81616
upperback -4.33227 1.48573 0.359207
thorax -8.93116 0.657029 -0.872628
lowerneck -7.03474 -1.33529 -5.21618
upperneck 12.2988 -1.55787 4.81152
head 4.92301 -0.599805 2.25977
rclavicle 1.16786e-015 1.21259e-014
rhumerus -41.0793 4.39316 -87.2376
rradius 32.8887
rwrist 22.2883
rhand -2.12888 -52.7188
rfingers 7.12502
rthumb 23.5498 -81.297
lclavicle 1.16786e-015 1.21259e-014
lhumerus -43.1293 -8.74823 93.9888
lradius 35.2757
lwrist -12.8514
lhand 1.71164 -37.6186
lfingers 7.12502
lthumb 27.2288 -9.56383
rfemur -0.323036 16.3937 26.0592
rtibia 16.7713
rfoot -12.7169 -26.4644
rtoes -8.02485
lfemur -3.77065 -18.0581 -24.1555
ltibia 22.019
lfoot -20.052 20.833
ltoes -32.534
114
root 8.93729 15.5169 22.9158 178.684 8.14217 -179.51
lowerback 7.79335 1.40478 1.62975
upperback -4.50224 2.19747 0.408978
thorax -9.11202 1.01671 -0.827505
lowerneck -7.05248 -1.34049 -5.27829
upperneck 12.3972 -1.56304 4.88315
head 4.95753 -0.598146 2.29286
rclavicle -1.45858e-014 -5.96354e-015
rhumerus -41.1512 4.50323 -87.2832
rradius 33.0316
rwrist 22.0962
rhand -2.39787 -52.475
rfingers 7.12502
rthumb 23.2917 -81.0861
lclavicle -1.45858e-014 -5.96354e-015
lhumerus -43.1793 -8.74549 93.9628
lradius 35.282
lwrist -13.0141
lhand 1.74015 -37.5509
lfingers 7.12502
lthumb 27.2561 -9.50041
rfemur -1.06263 16.7044 25.7982
rtibia 16.9046
rfoot -12.1789 -25.2803
rtoes -9.35624
lfemur -4.01835 -17.3753 -24.0822
ltibia 21.9664
lfoot -20.471 21.3972
ltoes -31.3706
115
root 8.94213 15.521 22.9258 178.878 8.59309 -179.459
lowerback 7.76742 1.56112 1.56107
upperback -4.57071 2.40714 0.439955
thorax -9.17093 1.12472 -0.789117
lowerneck -7.036 -1.35372 -5.23932
upperneck 12.3673 -1.58268 4.85082
head 4.94606 -0.608717 2.27486
rclavicle -1.00138e-014 6.16232e-015
rhumerus -41.237 4.70169 -87.385
rradius 33.2203
rwrist 21.8324
rhand -2.84921 -52.4537
rfingers 7.12502
rthumb 22.8587 -81.119
lclavicle -1.00138e-014 6.16232e-015
lhumerus -43.1398 -8.81547 93.929
lradius 35.29
lwrist -12.9841
lhand 2.03637 -37.2268
lfingers 7.12502
lthumb 27.5394 -9.22112
rfemur -1.43747 16.804 25.7621
rtibia 17.0574
rfoot -12.1042 -24.903
rtoes -9.39017
lfemur -4.19135 -17.1107 -23.9441
ltibia 21.8982
lfoot -20.5383 21.5162
ltoes -31.3425
116
root 8.93986 15.5202 22.9136 178.813 8.83223 -179.504
lowerback 7.53998 1.64207 1.61954
upperback -4.47712 2.5087 0.396036
thorax -8.92788 1.17143 -0.87356
lowerneck -6.9601 -1.34941 -5.18504
upperneck 12.2676 -1.58386 4.82649
head 4.90194 -0.610456 2.25768
rclavicle -1.55301e-014 -4.17448e-015
rhumerus -41.2175 4.76634 -87.4171
rradius 33.2151
rwrist 21.853
rhand -3.22914 -52.217
rfingers 7.12502
rthumb 22.494 -80.9269
lclavicle -1.55301e-014 -4.17448e-015
lhumerus -43.0247 -8.78744 93.8132
lradius 35.2609
lwrist -12.9698
lhand 1.74335 -36.9686
lfingers 7.12502
lthumb 27.2591 -8.91859
rfemur -1.41542 16.8653 25.7071
rtibia 17.1892
rfoot -12.155 -24.7519
rtoes -9.50315
lfemur -4.00362 -17.2457 -24.0942
ltibia 21.8498
lfoot -20.6745 21.8505
ltoes -30.9893
117
root 8.94177 15.5204 22.9156 178.824 8.78947 -179.535
lowerback 7.5186 1.63307 1.59087
upperback -4.4727 2.49026 0.371008
thorax -8.91085 1.16341 -0.880361
lowerneck -6.9438 -1.34474 -5.17089
upperneck 12.2221 -1.58419 4.85735
head 4.88521 -0.608881 2.26467
rclavicle -2.13321e-014 -1.36167e-014
rhumerus -41.1521 4.69014 -87.4062
rradius 33.1513
rwrist 21.9399
rhand -3.69522 -51.7607
rfingers 7.12502
rthumb 22.0466 -80.5241
lclavicle -2.13321e-014 -1.36167e-014
lhumerus -42.9032 -8.70754 93.6875
lradius 35.1629
lwrist -13.1357
lhand 0.858382 -37.12
lfingers 7.12502
lthumb 26.4123 -8.93994
rfemur -1.47279 16.8732 25.6805
rtibia 17.2498
rfoot -12.1608 -24.8037
rtoes -9.67449
lfemur -4.01378 -17.2144 -24.1027
ltibia 21.8139
lfoot -20.5611 21.8477
ltoes -31.0588
118
root 8.94509 15.5201 22.92 178.824 8.69662 -179.556
lowerback 7.63421 1.60522 1.52144
upperback -4.51582 2.44978 0.376854
thorax -9.03 1.1467 -0.834359
lowerneck -6.92732 -1.34274 -5.21832
upperneck 12.2268 -1.58163 4.90448
head 4.88439 -0.606589 2.28747
rclavicle 4.52981e-014 -5.96354e-016
rhumerus -41.1971 4.73576 -87.4521
rradius 33.2138
rwrist 21.7043
rhand -3.85632 -51.8189
rfingers 7.12502
rthumb 21.8919 -80.6004
lclavicle 4.52981e-014 -5.96354e-016
lhumerus -42.8814 -8.68852 93.6557
lradius 35.0593
lwrist -13.2191
lhand 0.591032 -37.1977
lfingers 7.12502
lthumb 26.1564 -8.97949
rfemur -1.48782 16.8701 25.6782
rtibia 17.2705
rfoot -12.2382 -24.8958
rtoes -9.81214
lfemur -4.03714 -17.1385 -24.0845
ltibia 21.7937
lfoot -20.3869 21.7391
ltoes -31.2157
119
root 8.9466 15.5199 22.9167 178.846 8.72648 -179.591
lowerback 7.53613 1.6163 1.48872
upperback -4.50283 2.45825 0.370716
thorax -8.95883 1.15378 -0.82007
lowerneck -6.90854 -1.3332 -5.2681
upperneck 12.2249 -1.56731 4.93847
head 4.88046 -0.599721 2.30726
rclavicle -7.45443e-015 -1.38155e-014
rhumerus -41.2364 4.84876 -87.517
rradius 33.3044
rwrist 21.4651
rhand -3.66682 -52.2677
rfingers 7.12502
rthumb 22.0739 -81.0279
lclavicle -7.45443e-015 -1.38155e-014
lhumerus -42.8058 -8.58167 93.5879
lradius 34.9552
lwrist -13.306
lhand 0.12391 -37.2832
lfingers 7.12502
lthumb 25.7091 -8.99955
rfemur -1.49299 16.8476 25.6295
rtibia 17.2464
rfoot -12.3388 -24.8323
rtoes -9.44632
lfemur -4.05547 -17.1812 -24.1228
ltibia 21.8042
lfoot -20.4656 21.7098
ltoes -31.1478
120
root 8.94929 15.5192 22.9222 178.861 8.58595 -179.543
lowerback 7.60635 1.5662 1.51328
upperback -4.50741 2.39613 0.383276
thorax -9.00614 1.1217 -0.813734
lowerneck -6.91151 -1.3215 -5.25392
upperneck 12.194 -1.55374 4.9369
head 4.8706 -0.593255 2.30503
rclavicle 1.09332e-014 -9.93923e-017
rhumerus -41.2074 4.87303 -87.5511
rradius 33.3107
rwrist 21.4874
rhand -3.50297 -52.4546
rfingers 7.12502
rthumb 22.2312 -81.1961
lclavicle 1.09332e-014 -9.93923e-017
lhumerus -42.6893 -8.4107 93.4773
lradius 34.88
lwrist -13.3717
lhand -0.314355 -37.3419
lfingers 7.12502
lthumb 25.2892 -8.99825
rfemur -1.51228 16.7192 25.6875
rtibia 17.2394
rfoot -12.2331 -24.8559
rtoes -9.77479
lfemur -4.10704 -17.2438 -24.0377
ltibia 21.8037
lfoot -20.4314 21.6193
ltoes -31.3526
121
root 8.95049 15.5181 22.9216 178.863 8.59738 -179.513
lowerback 7.63175 1.55796 1.52279
upperback -4.5141 2.38871 0.401475
thorax -9.02905 1.11796 -0.799698
lowerneck -6.92849 -1.28946 -5.22426
upperneck 12.1951 -1.51089 4.9145
head 4.87117 -0.57234 2.29581
rclavicle -1.00883e-014 3.97569e-016
rhumerus -41.1786 4.96597 -87.6073
rradius 33.2864
rwrist 21.4418
rhand -3.5433 -52.3124
rfingers 7.12502
rthumb 22.1925 -81.0584
lclavicle -1.00883e-014 3.97569e-016
lhumerus -42.6252 -8.25291 93.391
lradius 34.7866
lwrist -13.4228
lhand -0.352608 -37.3624
lfingers 7.12502
lthumb 25.2526 -9.01352
rfemur -1.53545 16.6877 25.7253
rtibia 17.2628
rfoot -12.0776 -24.8619
rtoes -10.6618
lfemur -4.08425 -17.2626 -24.0089
ltibia 21.7809
lfoot -20.3613 21.7616
ltoes -31.6055
